<?xml version="1.0" encoding="utf-8"?>
<!-- Generator: Adobe Illustrator 21.1.0, SVG Export Plug-In . SVG Version: 6.00 Build 0)  -->
<svg version="1.1" xmlns="http://www.w3.org/2000/svg" xmlns:xlink="http://www.w3.org/1999/xlink" x="0px" y="0px"
	 viewBox="0 0 300 300" style="enable-background:new 0 0 300 300;" xml:space="preserve">
<style type="text/css">
	.st0{display:none;}
	.st1{display:inline;}
	.st2{fill:#FFFFFF;}
</style>
<g id="圖層_2" class="st0">
	<g class="st1">
		<path d="M150,0C67.2,0,0,67.2,0,150s67.2,150,150,150s150-67.2,150-150S232.8,0,150,0z M246.3,223.6c-0.4,0.1-0.9,0.2-1.3,0.2
			c-1.8,0-3.5-0.9-4.4-2.5c-25.5-44.9-73.5-47.3-104.9-47.4v32.5c0,2-1.1,3.7-2.9,4.5c-1.8,0.9-3.8,0.6-5.3-0.7l-75.7-62.7
			c-1.1-0.9-1.8-2.3-1.8-3.8c0-1.5,0.7-2.9,1.8-3.8l75.7-62.5c1.5-1.2,3.6-1.5,5.3-0.7c1.8,0.8,2.9,2.6,2.9,4.5v32.6
			c48.1,1.8,75.4,22.8,89.9,40.4c18,21.9,24.4,47.6,24.4,64.5C250,221,248.5,223,246.3,223.6z"/>
	</g>
</g>
<g id="圖層_3">
	<g>
		<path class="st2" d="M150,121.7c-10.9,0-20.3,3.9-28,11.6c-7.8,7.8-11.6,17.1-11.6,28c0,10.9,3.9,20.3,11.6,28
			c7.8,7.8,17.1,11.6,28,11.6s20.3-3.9,28-11.6c7.8-7.8,11.6-17.1,11.6-28c0-10.9-3.9-20.3-11.6-28
			C170.3,125.5,160.9,121.7,150,121.7z M168,179.4c-5,5-11,7.5-18,7.5c-7,0-13-2.5-18-7.5c-5-5-7.5-11-7.5-18c0-7,2.5-13,7.5-18
			c5-5,11-7.5,18-7.5c7,0,13,2.5,18,7.5c5,5,7.5,11,7.5,18C175.5,168.4,173,174.4,168,179.4z"/>
		<path class="st2" d="M150,0C67.2,0,0,67.2,0,150s67.2,150,150,150s150-67.2,150-150S232.8,0,150,0z M235,201
			c0,6.3-2.2,11.6-6.6,16c-4.4,4.4-9.8,6.6-16,6.6H87.7c-6.3,0-11.6-2.2-16-6.6c-4.4-4.4-6.6-9.8-6.6-16v-79.3
			c0-6.3,2.2-11.6,6.6-16c4.4-4.4,9.8-6.6,16-6.6h19.8l4.5-12c1.1-2.9,3.2-5.4,6.2-7.5c3-2.1,6-3.1,9.2-3.1h45.3
			c3.1,0,6.2,1,9.2,3.1c3,2.1,5,4.6,6.2,7.5l4.5,12h19.8c6.3,0,11.6,2.2,16,6.6c4.4,4.4,6.6,9.8,6.6,16V201z"/>
	</g>
</g>
</svg>
