<?xml version="1.0" encoding="iso-8859-1"?>
<!-- Generator: Adobe Illustrator 19.0.0, SVG Export Plug-In . SVG Version: 6.00 Build 0)  -->
<svg version="1.1" id="Capa_1" xmlns="http://www.w3.org/2000/svg" xmlns:xlink="http://www.w3.org/1999/xlink" x="0px" y="0px"
	 viewBox="0 0 511.999 511.999" style="enable-background:new 0 0 511.999 511.999;" xml:space="preserve">
<g>
	<g>
		<path d="M446.163,54.797L261.16,0.725l-0.391-0.108c-3.12-0.822-6.418-0.822-9.537,0l-0.196,0.051L65.836,54.797
			c-13.663,3.71-23.187,16.146-23.187,30.324v263.777c0,34.634,19.115,65.858,49.919,81.613l121.146,71.205l0.842,0.459
			c12.975,6.549,27.209,9.823,41.442,9.823c14.233,0,28.467-3.274,41.442-9.823l0.428-0.216l121.561-71.447
			c30.805-15.755,49.919-46.98,49.919-81.613V85.122C469.35,70.945,459.827,58.507,446.163,54.797z M439.349,348.898
			L439.349,348.898c0,23.412-12.983,44.509-33.884,55.058l-0.429,0.217l-121.518,71.424c-17.268,8.558-37.77,8.557-55.039,0
			l-121.104-71.181l-0.842-0.46c-20.901-10.548-33.884-31.646-33.884-55.058V85.122c0-0.646,0.436-1.211,1.06-1.375L256,30.473
			l181.908,53.168l0.381,0.106c0.624,0.164,1.06,0.729,1.06,1.375V348.898z"/>
	</g>
</g>
<g>
	<g>
		<path d="M217.184,234.86c-2.08-4.068-4.667-7.232-7.763-9.488c-3.098-2.256-6.482-4.334-10.152-6.237
			c-3.672-1.901-7.056-3.45-10.152-4.645c-3.098-1.194-5.686-2.632-7.763-4.313c-2.08-1.679-3.119-3.537-3.119-5.573
			c0-2.21,1.105-4.091,3.317-5.64c2.21-1.547,5.528-2.322,9.953-2.322c4.157,0,7.962,0.842,11.413,2.521
			c3.451,1.682,5.707,2.521,6.768,2.521c2.565,0,4.579-1.258,6.038-3.775c1.46-2.518,2.19-4.943,2.19-7.282
			c0-2.459-0.996-4.556-2.986-6.289c-1.991-1.731-4.558-2.983-7.697-3.76c-3.141-0.775-5.972-1.3-8.493-1.573
			c-2.521-0.273-4.933-0.411-7.232-0.411c-9.378,0-17.385,2.323-24.021,6.968c-6.636,4.645-9.953,11.655-9.953,21.034
			c0,5.752,1.437,10.706,4.313,14.863c2.874,4.16,6.391,7.365,10.55,9.621c4.158,2.256,8.294,4.292,12.408,6.104
			c4.114,1.814,7.608,3.828,10.484,6.038c2.874,2.213,4.313,4.777,4.313,7.697s-1.283,5.108-3.848,6.568
			c-2.567,1.459-5.574,2.189-9.024,2.189c-2.743,0-5.354-0.535-7.83-1.609c-2.478-1.072-4.402-2.26-5.773-3.566
			c-1.373-1.305-2.876-2.492-4.512-3.566c-1.638-1.072-3.119-1.609-4.446-1.609c-2.389,0-4.491,1.24-6.304,3.716
			c-1.814,2.479-2.72,4.956-2.72,7.432c0,4.425,3.185,8.406,9.555,11.943c6.37,3.54,13.845,5.309,22.428,5.309
			c9.907,0,17.917-2.54,24.021-7.622c6.104-5.083,9.157-12.185,9.157-21.309C220.303,243.576,219.262,238.932,217.184,234.86z"/>
	</g>
</g>
<g>
	<g>
		<path d="M287.917,234.86c-2.08-4.068-4.667-7.232-7.763-9.488c-3.098-2.256-6.482-4.334-10.152-6.237
			c-3.672-1.901-7.056-3.45-10.152-4.645c-3.098-1.194-5.686-2.632-7.763-4.313c-2.08-1.679-3.119-3.537-3.119-5.573
			c0-2.21,1.105-4.091,3.317-5.64c2.21-1.547,5.528-2.322,9.953-2.322c4.157,0,7.962,0.842,11.413,2.521
			c3.451,1.682,5.707,2.521,6.768,2.521c2.565,0,4.579-1.258,6.038-3.775c1.46-2.518,2.19-4.943,2.19-7.282
			c0-2.459-0.996-4.556-2.986-6.289c-1.991-1.731-4.558-2.983-7.697-3.76c-3.141-0.775-5.972-1.3-8.493-1.573
			s-4.933-0.411-7.232-0.411c-9.378,0-17.384,2.323-24.021,6.968c-6.636,4.645-9.953,11.655-9.953,21.034
			c0,5.752,1.437,10.706,4.313,14.863c2.874,4.16,6.391,7.365,10.55,9.621c4.158,2.256,8.294,4.292,12.408,6.104
			c4.114,1.814,7.608,3.828,10.484,6.038c2.874,2.213,4.313,4.777,4.313,7.697s-1.283,5.108-3.848,6.568
			c-2.567,1.459-5.574,2.189-9.024,2.189c-2.743,0-5.354-0.535-7.83-1.609c-2.478-1.072-4.402-2.26-5.773-3.566
			c-1.373-1.305-2.876-2.492-4.512-3.566c-1.638-1.072-3.119-1.609-4.446-1.609c-2.389,0-4.491,1.24-6.304,3.716
			c-1.814,2.479-2.72,4.956-2.72,7.432c0,4.425,3.185,8.406,9.555,11.943c6.37,3.54,13.845,5.309,22.428,5.309
			c9.907,0,17.917-2.54,24.021-7.622c6.104-5.083,9.157-12.185,9.157-21.309C291.036,243.576,289.995,238.932,287.917,234.86z"/>
	</g>
</g>
<g>
	<g>
		<path d="M356.594,261.004c-1.062-1.77-2.521-2.654-4.379-2.654h-30.258v-72.725c0-2.034-1.018-3.583-3.052-4.646
			c-2.036-1.062-4.468-1.592-7.299-1.592c-2.833,0-5.265,0.53-7.299,1.592c-2.036,1.063-3.052,2.611-3.052,4.646v84.402
			c0,2.036,0.883,3.606,2.654,4.711c1.769,1.107,3.892,1.659,6.37,1.659h41.936c1.858,0,3.318-0.884,4.379-2.654
			c1.062-1.769,1.593-3.892,1.593-6.37C358.187,264.897,357.656,262.774,356.594,261.004z"/>
	</g>
</g>
<g>
	<g>
		<path d="M349.703,296.305H162.298c-8.284,0-15,6.716-15,15s6.716,15,15,15h187.405c8.284,0,15-6.716,15-15
			S357.987,296.305,349.703,296.305z"/>
	</g>
</g>
<g>
</g>
<g>
</g>
<g>
</g>
<g>
</g>
<g>
</g>
<g>
</g>
<g>
</g>
<g>
</g>
<g>
</g>
<g>
</g>
<g>
</g>
<g>
</g>
<g>
</g>
<g>
</g>
<g>
</g>
</svg>
