<?xml version="1.0" encoding="utf-8"?>
<!-- Generator: Adobe Illustrator 21.1.0, SVG Export Plug-In . SVG Version: 6.00 Build 0)  -->
<svg version="1.1" id="Capa_1" xmlns="http://www.w3.org/2000/svg" xmlns:xlink="http://www.w3.org/1999/xlink" x="0px" y="0px"
	 viewBox="0 0 512 512" style="enable-background:new 0 0 512 512;" xml:space="preserve">
<style type="text/css">
	.st0{enable-background:new    ;}
</style>
<g>
	<g>
		<path d="M446.2,54.8l-185-54.1l-0.4-0.1c-3.1-0.8-6.4-0.8-9.5,0L251,0.7L65.8,54.8c-13.7,3.7-23.2,16.1-23.2,30.3v263.8
			c0,34.6,19.1,65.9,49.9,81.6l121.1,71.2l0.8,0.5c13,6.5,27.2,9.8,41.4,9.8s28.5-3.3,41.4-9.8l0.4-0.2l121.6-71.4
			c30.8-15.8,49.9-47,49.9-81.6V85.1C469.4,70.9,459.8,58.5,446.2,54.8z M439.3,348.9L439.3,348.9c0,23.4-13,44.5-33.9,55.1
			l-0.4,0.2l-121.5,71.4c-17.3,8.6-37.8,8.6-55,0l-121.1-71.2l-0.8-0.5c-20.9-10.5-33.9-31.6-33.9-55.1V85.1c0-0.6,0.4-1.2,1.1-1.4
			L256,30.5l181.9,53.2l0.4,0.1c0.6,0.2,1.1,0.7,1.1,1.4L439.3,348.9L439.3,348.9z"/>
	</g>
</g>
<g>
	<g>
		<path d="M349.7,296.3H162.3c-8.3,0-15,6.7-15,15s6.7,15,15,15h187.4c8.3,0,15-6.7,15-15S358,296.3,349.7,296.3z"/>
	</g>
</g>
<g class="st0">
	<path d="M213,280.6c-8.9,0-17.2-1.5-24.8-4.5c-7.7-3-14.3-7.3-19.8-13c-5.6-5.7-9.9-12.6-13-20.7c-3.1-8.1-4.6-17.4-4.5-27.7
		c0.1-10.3,1.7-19.5,4.7-27.6c3-8.1,7.1-14.9,12.3-20.5c5.2-5.6,11.3-9.8,18.3-12.8c7.1-3,14.7-4.4,22.9-4.4c5.8,0,11.2,0.7,16,2.2
		c4.9,1.5,9.1,3.3,12.6,5.5c3.6,2.2,6.3,4.5,8.4,6.9c2,2.4,3.1,4.5,3.4,6.3c0.2,1.5,0.1,2.8-0.3,3.9c-0.4,1.1-0.7,1.8-1,2.3
		c-0.4,0.6-1,1.3-2,2.1c-1,0.8-2.1,1.5-3.4,2c-2.1,1-4.2,0.9-6.2-0.2c-2-1.1-4.3-2.4-6.8-4c-2.5-1.6-5.4-3.1-8.8-4.6
		c-3.4-1.5-7.6-2.2-12.5-2.2c-5.6,0-10.5,1.3-14.9,3.8c-4.3,2.6-8,5.9-10.9,10.1c-2.9,4.2-5.1,8.9-6.6,14.3
		c-1.5,5.4-2.2,11-2.2,16.8c0,5.8,0.8,11.5,2.5,17c1.7,5.5,4.1,10.4,7.4,14.7c3.3,4.3,7.3,7.7,12.2,10.2c4.9,2.6,10.5,3.8,16.9,3.6
		c3.3-0.1,6.2-0.5,8.7-1.2c2.5-0.7,4.7-1.5,6.6-2.4c1.9-0.9,3.6-2,5.2-3.1c1.5-1.1,3.1-2.3,4.6-3.5c3-2.1,5.9-2.6,8.7-1.2
		c2.7,1.1,4.6,2.6,5.5,4.5c0.9,1.9,1.3,3.9,1.1,5.9c-0.2,1.4-1.3,3.4-3.2,5.8c-1.9,2.4-4.6,4.8-8,7.1c-3.4,2.3-7.6,4.3-12.5,6
		C224.7,279.8,219.2,280.6,213,280.6z"/>
	<path d="M296,249l-7.8,20.5c-1.1,2.8-2.6,5.1-4.5,6.9c-1.9,1.7-4.7,2.6-8.4,2.6c-3.7,0-6.6-1-8.8-3c-2.2-2-2.5-5.5-0.8-10.3
		l36.7-107c0.6-1.9,1.9-3.6,3.8-5.1c2-1.5,4.6-2.2,7.9-2.2c3.3,0,6,0.7,7.9,2.2c2,1.5,3.2,3.2,3.8,5.1l37,107.3
		c1.4,4.5,1,7.8-1.2,9.9c-2.2,2.1-5.1,3.1-8.8,3.1c-3.7,0.1-6.4-0.7-8.2-2.4s-3.1-3.8-4.1-6.1l-8.5-21.4H296z M327.8,228.8
		l-13.7-44.1l-13.7,44.1H327.8z"/>
</g>
</svg>
