<?xml version="1.0"?>
<svg xmlns="http://www.w3.org/2000/svg" xmlns:xlink="http://www.w3.org/1999/xlink" version="1.1" id="Capa_1" x="0px" y="0px" viewBox="0 0 512 512" style="enable-background:new 0 0 512 512;" xml:space="preserve" width="512px" height="512px"><g transform="matrix(0.970299 0 0 0.970299 7.60345 7.60345)"><g>
	<g>
		<path d="M437.019,310.826c-28.355-28.355-62.197-49.227-99.125-61.652c34.055-25.17,56.183-65.596,56.183-111.097    C394.078,61.941,332.137,0,256,0S117.922,61.941,117.922,138.077c0,45.502,22.128,85.928,56.183,111.097    c-36.928,12.424-70.768,33.296-99.125,61.652C26.629,359.178,0,423.466,0,491.846C0,502.977,9.023,512,20.154,512h471.691    c11.131,0,20.154-9.023,20.154-20.154C512,423.466,485.371,359.178,437.019,310.826z M158.232,138.077    c0-53.91,43.858-97.768,97.769-97.768c53.911,0,97.769,43.858,97.769,97.768c0,53.91-43.858,97.768-97.769,97.768    C202.09,235.846,158.232,191.987,158.232,138.077z M41.243,471.691C51.437,362.172,143.863,276.154,256,276.154    s204.563,86.017,214.757,195.537H41.243z" data-original="#000000" class="active-path" data-old_color="#000000" fill="#212529"/>
	</g>
</g></g> </svg>
