<?xml version="1.0" encoding="utf-8"?>
<!-- Generator: Adobe Illustrator 21.1.0, SVG Export Plug-In . SVG Version: 6.00 Build 0)  -->
<svg version="1.1" id="圖層_1" xmlns="http://www.w3.org/2000/svg" xmlns:xlink="http://www.w3.org/1999/xlink" x="0px" y="0px"
	 viewBox="0 0 512 511" style="enable-background:new 0 0 512 511;" xml:space="preserve">
<style type="text/css">
	.st0{fill:#FFFFFF;}
</style>
<path class="st0" d="M473.9,332.7v-153c21.6-3.6,38.1-22.4,38.1-45c0-25.1-20.4-45.6-45.6-45.6c-14.1,0-26.8,6.5-35.2,16.6L256,4.5
	L80.8,105.7c-8.4-10.1-21-16.6-35.2-16.6C20.4,89.1,0,109.5,0,134.7c0,22.6,16.5,41.4,38.1,45v153C16.5,336.3,0,355,0,377.6
	c0,25.1,20.4,45.6,45.6,45.6c14.1,0,26.8-6.5,35.2-16.6L256,507.8l175.2-101.2c8.4,10.1,21,16.6,35.2,16.6
	c25.1,0,45.6-20.4,45.6-45.6C512,355,495.5,336.3,473.9,332.7z M466.4,104.1c16.9,0,30.6,13.7,30.6,30.6s-13.7,30.6-30.6,30.6
	c-16.8,0-30.6-13.7-30.6-30.6S449.6,104.1,466.4,104.1z M15,134.7c0-16.9,13.7-30.6,30.6-30.6c16.8,0,30.6,13.7,30.6,30.6
	s-13.7,30.6-30.6,30.6C28.7,165.2,15,151.5,15,134.7z M45.6,408.2c-16.9,0-30.6-13.7-30.6-30.6c0-16.9,13.7-30.6,30.6-30.6
	c16.8,0,30.6,13.7,30.6,30.6C76.1,394.5,62.4,408.2,45.6,408.2z M420.8,377.6c0,5.6,1,11,2.9,16l-160.2,92.5v-85.8h-15v85.8
	L88.3,393.6c1.9-5,2.9-10.4,2.9-16c0-22.6-16.5-41.4-38.1-45v-153c11.1-1.8,20.8-7.7,27.6-16l46.7,26.9l7.5-13l-46.6-26.9
	c1.9-5,2.9-10.4,2.9-16c0-5.6-1-11-2.9-16L256,21.9l167.7,96.8c-1.9,5-2.9,10.4-2.9,16c0,5.6,1,11,2.9,16l-46.6,26.9l7.5,13
	l46.7-26.9c6.9,8.3,16.6,14.1,27.6,16v153C437.3,336.3,420.8,355,420.8,377.6z M466.4,408.2c-16.8,0-30.6-13.7-30.6-30.6
	c0-16.9,13.7-30.6,30.6-30.6c16.9,0,30.6,13.7,30.6,30.6C497,394.5,483.3,408.2,466.4,408.2z"/>
<path class="st0" d="M38.1,25.7h15v15h-15V25.7z"/>
<path class="st0" d="M38.1,55.7h15v15h-15V55.7z"/>
<path class="st0" d="M458.9,55.7h15v15h-15V55.7z"/>
<path class="st0" d="M458.9,25.7h15v15h-15V25.7z"/>
<path class="st0" d="M38.1,471.6h15v15h-15V471.6z"/>
<path class="st0" d="M38.1,441.5h15v15h-15V441.5z"/>
<path class="st0" d="M458.9,441.5h15v15h-15V441.5z"/>
<path class="st0" d="M458.9,471.6h15v15h-15V471.6z"/>
<path class="st0" d="M363.3,194.2L256,132.2l-107.3,61.9v123.9L256,380l107.3-61.9V194.2z M248.5,358.3l-84.8-48.9v-97.9l84.8,48.9
	V358.3z M171.2,198.5l84.8-48.9l84.8,48.9L256,247.5L171.2,198.5z M348.3,309.4l-84.8,48.9v-97.9l84.8-48.9V309.4z"/>
<path class="st0" d="M350.4,401.2l27.8-16l7.5,13l-27.8,16L350.4,401.2z"/>
<path class="st0" d="M324.4,416.2l13-7.5l7.5,13l-13,7.5L324.4,416.2z"/>
<path class="st0" d="M351.4,111.7l7.5-13l13,7.5l-7.5,13L351.4,111.7z"/>
<path class="st0" d="M275.3,67.7l7.5-13l37.1,21.4l-7.5,13L275.3,67.7z"/>
<path class="st0" d="M325.4,96.6l7.5-13l13,7.5l-7.5,13L325.4,96.6z"/>
<path class="st0" d="M317.6,286.2h15v15h-15V286.2z"/>
<path class="st0" d="M317.6,241.1h15v30.1h-15V241.1z"/>
<path class="st0" d="M421.3,248.6h15v15h-15V248.6z"/>
<path class="st0" d="M391.3,248.6h15v15h-15V248.6z"/>
<path class="st0" d="M105.7,248.6h15v15h-15V248.6z"/>
<path class="st0" d="M75.6,248.6h15v15h-15V248.6z"/>
</svg>
