<svg height="448pt" viewBox="0 0 448 448" width="448pt" xmlns="http://www.w3.org/2000/svg"><path d="m192 256h64v48h-64zm0 0"/><path d="m192 192h64v48h-64zm0 0"/><path d="m120 256h56v48h-56zm0 0"/><path d="m272 256h56v48h-56zm0 0"/><path d="m120 192h56v48h-56zm0 0"/><path d="m224 0c-123.710938 0-224 100.289062-224 224s100.289062 224 224 224 224-100.289062 224-224c-.140625-123.652344-100.347656-223.859375-224-224zm120 312c0 4.417969-3.582031 8-8 8h-224c-4.417969 0-8-3.582031-8-8v-160c0-13.253906 10.746094-24 24-24h192c13.253906 0 24 10.746094 24 24zm0 0"/><path d="m320 144h-192c-4.417969 0-8 3.582031-8 8v24h208v-24c0-4.417969-3.582031-8-8-8zm0 0"/><path d="m272 192h56v48h-56zm0 0"/></svg>