<?xml version="1.0" encoding="utf-8"?>
<!-- Generator: Adobe Illustrator 21.1.0, SVG Export Plug-In . SVG Version: 6.00 Build 0)  -->
<svg version="1.1" id="圖層_2" xmlns="http://www.w3.org/2000/svg" xmlns:xlink="http://www.w3.org/1999/xlink" x="0px" y="0px"
	 viewBox="0 0 300 300" style="enable-background:new 0 0 300 300;" xml:space="preserve">
<style type="text/css">
	.st0{fill:#FFFFFF;}
</style>
<g>
	<path class="st0" d="M150,0C67.2,0,0,67.2,0,150s67.2,150,150,150s150-67.2,150-150S232.8,0,150,0z M246.3,223.6
		c-0.4,0.1-0.9,0.2-1.3,0.2c-1.8,0-3.5-0.9-4.4-2.5c-25.5-44.9-73.5-47.3-104.9-47.4v32.5c0,2-1.1,3.7-2.9,4.5
		c-1.8,0.9-3.8,0.6-5.3-0.7l-75.7-62.7c-1.1-0.9-1.8-2.3-1.8-3.8c0-1.5,0.7-2.9,1.8-3.8l75.7-62.5c1.5-1.2,3.6-1.5,5.3-0.7
		c1.8,0.8,2.9,2.6,2.9,4.5v32.6c48.1,1.8,75.4,22.8,89.9,40.4c18,21.9,24.4,47.6,24.4,64.5C250,221,248.5,223,246.3,223.6z"/>
</g>
</svg>
