<?xml version="1.0" encoding="utf-8"?>
<!-- Generator: Adobe Illustrator 21.1.0, SVG Export Plug-In . SVG Version: 6.00 Build 0)  -->
<svg version="1.1" id="Capa_1" xmlns="http://www.w3.org/2000/svg" xmlns:xlink="http://www.w3.org/1999/xlink" x="0px" y="0px"
	 viewBox="0 0 512 512" style="enable-background:new 0 0 512 512;" xml:space="preserve">
<style type="text/css">
	.st0{fill:#FFFFFF;}
</style>
<g>
	<g>
		<path class="st0" d="M446.2,54.8l-185-54.1l-0.4-0.1c-3.1-0.8-6.4-0.8-9.5,0L251,0.7L65.8,54.8c-13.7,3.7-23.2,16.1-23.2,30.3
			v263.8c0,34.6,19.1,65.9,49.9,81.6l121.1,71.2l0.8,0.5c13,6.5,27.2,9.8,41.4,9.8s28.5-3.3,41.4-9.8l0.4-0.2l121.6-71.4
			c30.8-15.8,49.9-47,49.9-81.6V85.1C469.4,70.9,459.8,58.5,446.2,54.8z M439.3,348.9L439.3,348.9c0,23.4-13,44.5-33.9,55.1
			l-0.4,0.2l-121.5,71.4c-17.3,8.6-37.8,8.6-55,0l-121.1-71.2l-0.8-0.5c-20.9-10.5-33.9-31.6-33.9-55.1V85.1c0-0.6,0.4-1.2,1.1-1.4
			L256,30.5l181.9,53.2l0.4,0.1c0.6,0.2,1.1,0.7,1.1,1.4L439.3,348.9L439.3,348.9z"/>
	</g>
</g>
<g>
	<g>
		<path class="st0" d="M217.2,234.9c-2.1-4.1-4.7-7.2-7.8-9.5c-3.1-2.3-6.5-4.3-10.2-6.2c-3.7-1.9-7.1-3.4-10.2-4.6
			c-3.1-1.2-5.7-2.6-7.8-4.3c-2.1-1.7-3.1-3.5-3.1-5.6c0-2.2,1.1-4.1,3.3-5.6c2.2-1.5,5.5-2.3,10-2.3c4.2,0,8,0.8,11.4,2.5
			c3.5,1.7,5.7,2.5,6.8,2.5c2.6,0,4.6-1.3,6-3.8c1.5-2.5,2.2-4.9,2.2-7.3c0-2.5-1-4.6-3-6.3c-2-1.7-4.6-3-7.7-3.8
			c-3.1-0.8-6-1.3-8.5-1.6s-4.9-0.4-7.2-0.4c-9.4,0-17.4,2.3-24,7s-10,11.7-10,21c0,5.8,1.4,10.7,4.3,14.9c2.9,4.2,6.4,7.4,10.6,9.6
			c4.2,2.3,8.3,4.3,12.4,6.1c4.1,1.8,7.6,3.8,10.5,6c2.9,2.2,4.3,4.8,4.3,7.7s-1.3,5.1-3.8,6.6c-2.6,1.5-5.6,2.2-9,2.2
			c-2.7,0-5.4-0.5-7.8-1.6c-2.5-1.1-4.4-2.3-5.8-3.6c-1.4-1.3-2.9-2.5-4.5-3.6c-1.6-1.1-3.1-1.6-4.4-1.6c-2.4,0-4.5,1.2-6.3,3.7
			c-1.8,2.5-2.7,5-2.7,7.4c0,4.4,3.2,8.4,9.6,11.9c6.4,3.5,13.8,5.3,22.4,5.3c9.9,0,17.9-2.5,24-7.6c6.1-5.1,9.2-12.2,9.2-21.3
			C220.3,243.6,219.3,238.9,217.2,234.9z"/>
	</g>
</g>
<g>
	<g>
		<path class="st0" d="M287.9,234.9c-2.1-4.1-4.7-7.2-7.8-9.5c-3.1-2.3-6.5-4.3-10.2-6.2c-3.7-1.9-7.1-3.4-10.2-4.6
			c-3.1-1.2-5.7-2.6-7.8-4.3c-2.1-1.7-3.1-3.5-3.1-5.6c0-2.2,1.1-4.1,3.3-5.6c2.2-1.5,5.5-2.3,10-2.3c4.2,0,8,0.8,11.4,2.5
			c3.5,1.7,5.7,2.5,6.8,2.5c2.6,0,4.6-1.3,6-3.8c1.5-2.5,2.2-4.9,2.2-7.3c0-2.5-1-4.6-3-6.3c-2-1.7-4.6-3-7.7-3.8
			c-3.1-0.8-6-1.3-8.5-1.6s-4.9-0.4-7.2-0.4c-9.4,0-17.4,2.3-24,7c-6.6,4.6-10,11.7-10,21c0,5.8,1.4,10.7,4.3,14.9
			c2.9,4.2,6.4,7.4,10.6,9.6c4.2,2.3,8.3,4.3,12.4,6.1c4.1,1.8,7.6,3.8,10.5,6c2.9,2.2,4.3,4.8,4.3,7.7s-1.3,5.1-3.8,6.6
			c-2.6,1.5-5.6,2.2-9,2.2c-2.7,0-5.4-0.5-7.8-1.6c-2.5-1.1-4.4-2.3-5.8-3.6c-1.4-1.3-2.9-2.5-4.5-3.6c-1.6-1.1-3.1-1.6-4.4-1.6
			c-2.4,0-4.5,1.2-6.3,3.7c-1.8,2.5-2.7,5-2.7,7.4c0,4.4,3.2,8.4,9.6,11.9c6.4,3.5,13.8,5.3,22.4,5.3c9.9,0,17.9-2.5,24-7.6
			c6.1-5.1,9.2-12.2,9.2-21.3C291,243.6,290,238.9,287.9,234.9z"/>
	</g>
</g>
<g>
	<g>
		<path class="st0" d="M356.6,261c-1.1-1.8-2.5-2.7-4.4-2.7H322v-72.7c0-2-1-3.6-3.1-4.6c-2-1.1-4.5-1.6-7.3-1.6
			c-2.8,0-5.3,0.5-7.3,1.6c-2,1.1-3.1,2.6-3.1,4.6V270c0,2,0.9,3.6,2.7,4.7c1.8,1.1,3.9,1.7,6.4,1.7h41.9c1.9,0,3.3-0.9,4.4-2.7
			c1.1-1.8,1.6-3.9,1.6-6.4C358.2,264.9,357.7,262.8,356.6,261z"/>
	</g>
</g>
<g>
	<g>
		<path class="st0" d="M349.7,296.3H162.3c-8.3,0-15,6.7-15,15s6.7,15,15,15h187.4c8.3,0,15-6.7,15-15S358,296.3,349.7,296.3z"/>
	</g>
</g>
</svg>
