<?xml version="1.0" encoding="utf-8"?>
<!-- Generator: Adobe Illustrator 21.1.0, SVG Export Plug-In . SVG Version: 6.00 Build 0)  -->
<svg version="1.1" id="Layer_1" xmlns="http://www.w3.org/2000/svg" xmlns:xlink="http://www.w3.org/1999/xlink" x="0px" y="0px"
	 viewBox="0 0 504.1 504.1" style="enable-background:new 0 0 504.1 504.1;" xml:space="preserve">
<style type="text/css">
	.st0{fill:#FF9800;}
	.st1{fill:#4CDBC4;}
	.st2{fill:#324A5E;}
	.st3{fill:#F1543F;}
	.st4{fill:#FFFFFF;}
	.st5{fill:#ACB3BA;}
</style>
<circle class="st0" cx="252.1" cy="252.1" r="252.1"/>
<g>
	<path class="st1" d="M388,359.6l-271.8,0c-11.7,0-20.9-9.2-20.6-20.6V165.2c0-11.7,9.2-20.9,20.6-20.6H388
		c11.7,0,20.9,9.2,20.6,20.6V339C408.9,350.4,399.7,359.6,388,359.6z"/>
	<rect x="95.2" y="179" class="st2" width="313.5" height="47.7"/>
	<rect x="116.3" y="258.2" class="st3" width="102.4" height="16.9"/>
	<rect x="317.4" y="271.8" class="st4" width="65.8" height="65.8"/>
	<g>
		<polygon class="st5" points="352.6,278.5 352.6,296.9 336.4,296.9 336.2,271.6 332.3,271.6 332.5,305.8 317.2,305.5 317.2,309.4 
			336.4,309.7 336.4,300.8 356.5,300.8 356.5,282.4 382.7,282.4 382.7,278.5 		"/>
		<polygon class="st5" points="362.1,315.8 346.2,315.6 346.2,307.8 342.3,307.8 342.3,322.8 317.2,322.8 317.2,326.7 346.2,326.7 
			346.2,319.5 360.1,319.5 360.1,337.3 364,337.3 364,319.5 383,319.5 383,315.6 364,315.6 		"/>
	</g>
	<polygon class="st4" points="387.1,240.6 387.1,263.5 403.6,252.1 	"/>
	<g>
		<rect x="116.3" y="324.9" class="st2" width="26" height="12.6"/>
		<rect x="116.4" y="296.8" class="st2" width="73.6" height="11.4"/>
		<rect x="164.2" y="324.7" class="st2" width="26" height="12.6"/>
		<rect x="211.6" y="324.5" class="st2" width="26" height="12.6"/>
		<rect x="259.3" y="324.9" class="st2" width="26" height="12.6"/>
	</g>
</g>
</svg>
