<?xml version="1.0" encoding="utf-8"?>
<!-- Generator: Adobe Illustrator 21.1.0, SVG Export Plug-In . SVG Version: 6.00 Build 0)  -->
<svg version="1.1" xmlns="http://www.w3.org/2000/svg" xmlns:xlink="http://www.w3.org/1999/xlink" x="0px" y="0px"
	 viewBox="0 0 300 300" style="enable-background:new 0 0 300 300;" xml:space="preserve">
<style type="text/css">
	.st0{display:none;}
	.st1{display:inline;}
</style>
<g id="圖層_2" class="st0">
	<g class="st1">
		<path d="M150,0C67.2,0,0,67.2,0,150s67.2,150,150,150s150-67.2,150-150S232.8,0,150,0z M246.3,223.6c-0.4,0.1-0.9,0.2-1.3,0.2
			c-1.8,0-3.5-0.9-4.4-2.5c-25.5-44.9-73.5-47.3-104.9-47.4v32.5c0,2-1.1,3.7-2.9,4.5c-1.8,0.9-3.8,0.6-5.3-0.7l-75.7-62.7
			c-1.1-0.9-1.8-2.3-1.8-3.8c0-1.5,0.7-2.9,1.8-3.8l75.7-62.5c1.5-1.2,3.6-1.5,5.3-0.7c1.8,0.8,2.9,2.6,2.9,4.5v32.6
			c48.1,1.8,75.4,22.8,89.9,40.4c18,21.9,24.4,47.6,24.4,64.5C250,221,248.5,223,246.3,223.6z"/>
	</g>
</g>
<g id="圖層_3" class="st0">
	<g class="st1">
		<path d="M150,121.7c-10.9,0-20.3,3.9-28,11.6c-7.8,7.8-11.6,17.1-11.6,28c0,10.9,3.9,20.3,11.6,28c7.8,7.8,17.1,11.6,28,11.6
			s20.3-3.9,28-11.6c7.8-7.8,11.6-17.1,11.6-28c0-10.9-3.9-20.3-11.6-28C170.3,125.5,160.9,121.7,150,121.7z M168,179.4
			c-5,5-11,7.5-18,7.5c-7,0-13-2.5-18-7.5c-5-5-7.5-11-7.5-18c0-7,2.5-13,7.5-18c5-5,11-7.5,18-7.5c7,0,13,2.5,18,7.5
			c5,5,7.5,11,7.5,18C175.5,168.4,173,174.4,168,179.4z"/>
		<path d="M150,0C67.2,0,0,67.2,0,150s67.2,150,150,150s150-67.2,150-150S232.8,0,150,0z M235,201c0,6.3-2.2,11.6-6.6,16
			c-4.4,4.4-9.8,6.6-16,6.6H87.7c-6.3,0-11.6-2.2-16-6.6c-4.4-4.4-6.6-9.8-6.6-16v-79.3c0-6.3,2.2-11.6,6.6-16
			c4.4-4.4,9.8-6.6,16-6.6h19.8l4.5-12c1.1-2.9,3.2-5.4,6.2-7.5c3-2.1,6-3.1,9.2-3.1h45.3c3.1,0,6.2,1,9.2,3.1c3,2.1,5,4.6,6.2,7.5
			l4.5,12h19.8c6.3,0,11.6,2.2,16,6.6c4.4,4.4,6.6,9.8,6.6,16V201z"/>
	</g>
</g>
<g id="圖層_4" class="st0">
	<g class="st1">
		<path d="M120.7,218.1c3,0,5.3-2.4,5.3-5.3v-64.7c0-3-2.4-5.3-5.3-5.3s-5.3,2.4-5.3,5.3v64.7C115.4,215.8,117.8,218.1,120.7,218.1z
			"/>
		<path d="M179.3,218.1c3,0,5.3-2.4,5.3-5.3v-64.7c0-3-2.4-5.3-5.3-5.3s-5.3,2.4-5.3,5.3v64.7C174,215.8,176.3,218.1,179.3,218.1z"
			/>
		<path d="M150,218.1c3,0,5.3-2.4,5.3-5.3v-64.7c0-3-2.4-5.3-5.3-5.3c-3,0-5.3,2.4-5.3,5.3v64.7C144.7,215.8,147,218.1,150,218.1z"
			/>
		<path d="M150,0C67.2,0,0,67.2,0,150s67.2,150,150,150s150-67.2,150-150S232.8,0,150,0z M210.4,215.4L210.4,215.4
			c-1,7.9-3.2,13.5-7,17.7c-4.6,5.1-11.4,7.7-20.3,7.7h-67.6c-8.6,0-15.1-2.5-19.6-7.5c-3.5-4-5.6-9.4-6.6-17c0,0,0,0,0-0.1
			l-10.9-93.5l143.1,0L210.4,215.4z M230,106.7c0,3-2.4,5.3-5.3,5.3H75.3c-3,0-5.3-2.4-5.3-5.3v-2.2c0-12.5,10.8-22.6,24.2-22.6H107
			c1.5-14.2,8.1-22.5,18.1-22.6h47.8c7.2,0,12.8,4.2,15.8,11.9c1.2,3,2,6.6,2.4,10.7h14.7c13.4,0,24.2,10.1,24.2,22.6V106.7z"/>
		<path d="M172.9,69.8h-47.8c-4.8,0-6.7,6.5-7.4,11.9h62.6C179.7,76,177.7,69.8,172.9,69.8z"/>
	</g>
</g>
<g id="圖層_5">
	<path d="M150,0C67.2,0,0,67.2,0,150s67.2,150,150,150s150-67.2,150-150S232.8,0,150,0z M183.1,63.4h50c3,0,5.5,2.5,5.5,5.5v50
		c0,3-2.5,5.5-5.5,5.5s-5.5-2.5-5.5-5.5V74.4h-44.5c-3,0-5.5-2.5-5.5-5.5S180,63.4,183.1,63.4z M61.3,68.9c0-3,2.5-5.5,5.5-5.5h50
		c3,0,5.5,2.5,5.5,5.5s-2.5,5.5-5.5,5.5H72.3v44.5c0,3-2.5,5.5-5.5,5.5s-5.5-2.5-5.5-5.5V68.9z M116.8,236.6h-50
		c-3,0-5.5-2.5-5.5-5.5v-50c0-3,2.5-5.5,5.5-5.5s5.5,2.5,5.5,5.5v44.5h44.5c3,0,5.5,2.5,5.5,5.5S119.8,236.6,116.8,236.6z
		 M150,186.2c-3.6,0-6.5-2.9-6.5-6.5v-23.2h-23.2c-3.6,0-6.5-2.9-6.5-6.5s2.9-6.5,6.5-6.5h23.2v-23.2c0-3.6,2.9-6.5,6.5-6.5
		s6.5,2.9,6.5,6.5v23.2h23.2c3.6,0,6.5,2.9,6.5,6.5s-2.9,6.5-6.5,6.5h-23.2v23.2C156.5,183.3,153.6,186.2,150,186.2z M238.7,231.1
		c0,3-2.5,5.5-5.5,5.5h-50c-3,0-5.5-2.5-5.5-5.5s2.5-5.5,5.5-5.5h44.5v-44.5c0-3,2.5-5.5,5.5-5.5s5.5,2.5,5.5,5.5V231.1z"/>
</g>
</svg>
