<?xml version="1.0" encoding="utf-8"?>
<!-- Generator: Adobe Illustrator 21.1.0, SVG Export Plug-In . SVG Version: 6.00 Build 0)  -->
<svg version="1.1" id="Capa_1" xmlns="http://www.w3.org/2000/svg" xmlns:xlink="http://www.w3.org/1999/xlink" x="0px" y="0px"
	 viewBox="0 0 512 512" style="enable-background:new 0 0 512 512;" xml:space="preserve">
<style type="text/css">
	.st0{fill:#FF9800;}
	.st1{fill:#5C5E70;}
	.st2{fill:#F9EED7;}
	.st3{fill:#494B5B;}
</style>
<circle class="st0" cx="256" cy="256" r="256"/>
<g>
	<path class="st1" d="M341.6,448.8H170.4c-11,0-20-9-20-20V83.2c0-11,9-20,20-20h171.2c11,0,20,9,20,20v345.5
		C361.6,439.8,352.6,448.8,341.6,448.8z"/>
	<rect x="160.4" y="117.5" class="st2" width="191.2" height="277"/>
	<path class="st3" d="M274.4,424.6c0,7.3-4,13.7-9.9,17.1c1.7-2.9,2.6-6.2,2.6-9.8c0-10.9-8.8-19.7-19.7-19.7
		c-3.6,0-6.9,0.9-9.8,2.6c3.4-5.9,9.8-9.9,17.1-9.9C265.6,404.9,274.4,413.7,274.4,424.6z"/>
	<g>
		<g>
			<rect x="201.6" y="201.6" class="st1" width="12.2" height="12.2"/>
			<rect x="201.6" y="298.2" class="st1" width="12.2" height="12.2"/>
			<path class="st1" d="M275.7,179.1v57.3h57.3v-57.3H275.7z M318.9,222.3h-29.2v-29.2h29.2V222.3z"/>
			<rect x="298.2" y="201.6" class="st1" width="12.2" height="12.2"/>
			<polygon class="st1" points="262.1,274.3 262.1,262.1 249.9,262.1 249.9,274.3 249.9,286.4 262.1,286.4 262.1,286.8 262.1,299 
				274.3,299 274.3,286.8 274.3,274.6 262.1,274.6 			"/>
			<polygon class="st1" points="308.6,246.6 308.6,258.8 320.7,258.8 332.9,258.8 332.9,246.6 320.7,246.6 			"/>
			<rect x="250.2" y="299.2" class="st1" width="12.2" height="12.2"/>
			<rect x="237.7" y="249.9" class="st1" width="12.2" height="12.2"/>
			<rect x="320.5" y="272.9" class="st1" width="12.2" height="12.2"/>
			<polygon class="st1" points="291.6,247.8 279.4,247.8 267.2,247.8 267.2,260 279.4,260 279.4,272.1 291.6,272.1 291.6,284.3 
				303.8,284.3 303.8,272.1 303.8,260 291.6,260 			"/>
			<path class="st1" d="M207.2,249.9v12.2h12.2v-12.2v-13.6h17v-57.3h-57.3v57.3h28.1L207.2,249.9L207.2,249.9z M193.1,193.1h29.2
				v29.2h-29.2C193.1,222.3,193.1,193.1,193.1,193.1z"/>
			<path class="st1" d="M191.3,249.9h-12.2v25.8v5.2v52.1h57.3v-57.3h-45.1L191.3,249.9L191.3,249.9z M193.1,289.7h29.2v29.2h-29.2
				C193.1,318.9,193.1,289.7,193.1,289.7z"/>
			<polygon class="st1" points="262.1,226 262.1,213.8 262.1,201.6 249.9,201.6 249.9,213.8 249.9,226 249.9,238.1 262.1,238.1 			
				"/>
		</g>
		<rect x="275.1" y="299.3" class="st1" width="10.4" height="24.3"/>
		<rect x="308.6" y="299.3" class="st1" width="24.3" height="12.1"/>
		<rect x="320.7" y="320.7" class="st1" width="12.2" height="12.2"/>
		<rect x="294.9" y="317.3" class="st1" width="15.7" height="15.7"/>
	</g>
	<path class="st3" d="M283.9,94.1h-55.8c-2,0-3.6-1.6-3.6-3.6v0c0-2,1.6-3.6,3.6-3.6h55.8c2,0,3.6,1.6,3.6,3.6v0
		C287.5,92.5,285.9,94.1,283.9,94.1z"/>
</g>
</svg>
