<svg viewBox="0 -4 512 511" xmlns="http://www.w3.org/2000/svg"><path d="m473.925781 328.660156v-153.042968c21.574219-3.597657 38.074219-22.382813 38.074219-44.960938 0-25.136719-20.449219-45.589844-45.589844-45.589844-14.140625 0-26.796875 6.472656-35.167968 16.609375l-175.242188-101.175781-175.242188 101.175781c-8.371093-10.136719-21.027343-16.609375-35.167968-16.609375-25.140625 0-45.589844 20.453125-45.589844 45.589844 0 22.578125 16.5 41.363281 38.074219 44.960938v153.042968c-21.574219 3.597656-38.074219 22.382813-38.074219 44.960938 0 25.136718 20.449219 45.589844 45.589844 45.589844 14.140625 0 26.796875-6.472657 35.167968-16.609376l175.242188 101.175782 175.242188-101.179688c8.371093 10.136719 21.027343 16.609375 35.167968 16.609375 25.140625 0 45.589844-20.449219 45.589844-45.589843 0-22.574219-16.5-41.359376-38.074219-44.957032zm-7.515625-228.5625c16.851563 0 30.558594 13.707032 30.558594 30.558594s-13.707031 30.5625-30.558594 30.5625c-16.847656 0-30.558594-13.710938-30.558594-30.5625s13.710938-30.558594 30.558594-30.558594zm-451.378906 30.558594c0-16.851562 13.707031-30.558594 30.558594-30.558594 16.847656 0 30.558594 13.707032 30.558594 30.558594s-13.710938 30.5625-30.558594 30.5625c-16.851563 0-30.558594-13.710938-30.558594-30.5625zm30.558594 273.523438c-16.851563 0-30.558594-13.710938-30.558594-30.558594 0-16.851563 13.707031-30.5625 30.558594-30.5625 16.847656 0 30.558594 13.710937 30.558594 30.5625 0 16.847656-13.710938 30.558594-30.558594 30.558594zm375.230468-30.558594c0 5.617187 1.03125 10.996094 2.894532 15.972656l-160.199219 92.492188v-85.796876h-15.03125v85.796876l-160.199219-92.492188c1.863282-4.976562 2.894532-10.355469 2.894532-15.972656 0-22.578125-16.503907-41.363282-38.074219-44.960938v-153.042968c11.0625-1.84375 20.796875-7.675782 27.648437-15.976563l46.65625 26.933594 7.511719-13.015625-46.640625-26.925782c1.867188-4.976562 2.898438-10.355468 2.898438-15.976562 0-5.617188-1.03125-10.996094-2.894532-15.972656l167.714844-96.828125 167.714844 96.828125c-1.863282 4.976562-2.894532 10.355468-2.894532 15.972656 0 5.621094 1.03125 11 2.898438 15.976562l-46.640625 26.925782 7.511719 13.015625 46.65625-26.933594c6.855468 8.300781 16.585937 14.132813 27.648437 15.976563v153.042968c-21.570312 3.597656-38.074219 22.382813-38.074219 44.960938zm45.589844 30.558594c-16.847656 0-30.558594-13.710938-30.558594-30.558594 0-16.851563 13.710938-30.5625 30.558594-30.5625 16.851563 0 30.558594 13.710937 30.558594 30.5625 0 16.847656-13.707031 30.558594-30.558594 30.558594zm0 0"/><path d="m38.074219 21.6875h15.03125v15.03125h-15.03125zm0 0"/><path d="m38.074219 51.746094h15.03125v15.03125h-15.03125zm0 0"/><path d="m458.894531 51.746094h15.03125v15.03125h-15.03125zm0 0"/><path d="m458.894531 21.6875h15.03125v15.03125h-15.03125zm0 0"/><path d="m38.074219 467.558594h15.03125v15.03125h-15.03125zm0 0"/><path d="m38.074219 437.5h15.03125v15.03125h-15.03125zm0 0"/><path d="m458.894531 437.5h15.03125v15.03125h-15.03125zm0 0"/><path d="m458.894531 467.558594h15.03125v15.03125h-15.03125zm0 0"/><path d="m363.300781 190.1875-107.300781-61.949219-107.300781 61.949219v123.902344l107.300781 61.949218 107.300781-61.949218zm-114.816406 164.160156-84.757813-48.933594v-97.871093l84.757813 48.933593zm-77.242187-159.820312 84.757812-48.9375 84.757812 48.9375-84.757812 48.933594zm177.03125 110.886718-84.757813 48.933594v-97.871094l84.757813-48.933593zm0 0"/><path d="m350.40625 397.195312 27.761719-16.027343 7.515625 13.015625-27.765625 16.027344zm0 0"/><path d="m324.375 412.226562 13.015625-7.515624 7.515625 13.015624-13.015625 7.515626zm0 0"/><path d="m351.441406 107.675781 7.515625-13.015625 13.015625 7.515625-7.515625 13.015625zm0 0"/><path d="m275.285156 63.703125 7.515625-13.015625 37.109375 21.425781-7.515625 13.015625zm0 0"/><path d="m325.410156 92.648438 7.515625-13.015626 13.015625 7.511719-7.515625 13.015625zm0 0"/><path d="m317.621094 282.195312h15.027344v15.03125h-15.027344zm0 0"/><path d="m317.621094 237.109375h15.027344v30.058594h-15.027344zm0 0"/><path d="m421.324219 244.625h15.027343v15.027344h-15.027343zm0 0"/><path d="m391.265625 244.625h15.027344v15.027344h-15.027344zm0 0"/><path d="m105.707031 244.625h15.027344v15.027344h-15.027344zm0 0"/><path d="m75.648438 244.625h15.027343v15.027344h-15.027343zm0 0"/></svg>