<svg xmlns="http://www.w3.org/2000/svg" width="200" height="48" viewBox="0 0 200 48">
    <g fill="#FFFFFF" fill-rule="evenodd">
        <path d="M15.257 26.97L6.746 1.742 0 2.716l11.815 31.968h5.396L30.098 2.438l-5.77-.696zM33.028 34.684h6.14V11.452h-6.14v23.232zm6.558-30.388c0 .96-.34 1.789-1.022 2.486-.683.698-1.506 1.045-2.466 1.045a3.483 3.483 0 0 1-2.489-.998c-.698-.666-1.046-1.465-1.046-2.393 0-1.084.325-1.96.976-2.625.65-.667 1.52-1 2.605-1 .993 0 1.815.333 2.466 1 .651.666.976 1.494.976 2.485zM59.914 28.272c0 2.043-.823 3.716-2.465 5.017-1.645 1.302-3.739 1.951-6.28 1.951-2.855 0-5.428-.896-7.722-2.694l2-3.253c1.83 1.549 3.489 2.325 4.978 2.325.991 0 1.79-.256 2.395-.767.604-.512.907-1.2.907-2.07 0-.742-.248-1.408-.744-1.997-.498-.588-1.582-1.485-3.257-2.695-1.674-1.208-2.807-2.136-3.396-2.788-1.055-1.207-1.58-2.539-1.58-3.995 0-1.889.744-3.431 2.232-4.623 1.489-1.192 3.395-1.79 5.723-1.79 2.417 0 4.636.637 6.65 1.906l-1.804 2.928c-1.235-.867-2.53-1.302-3.885-1.302-.834 0-1.521.217-2.06.65-.54.435-.81.976-.81 1.627 0 .929 1.064 2.184 3.194 3.763 2.376 1.767 3.957 3.153 4.744 4.16.786 1.006 1.18 2.222 1.18 3.647M83.035 33.01c-2.42 1.488-5.103 2.231-8.049 2.231-3.535 0-6.465-1.122-8.791-3.37-2.326-2.245-3.49-5.148-3.49-8.71 0-3.531 1.217-6.46 3.653-8.782 2.434-2.323 5.527-3.485 9.28-3.485 2.636 0 4.992.636 7.072 1.905l-1.81 3.253c-1.514-.713-2.997-1.069-4.45-1.069-2.163 0-3.901.72-5.216 2.16-1.312 1.44-1.969 3.354-1.969 5.739 0 2.478.665 4.476 1.993 5.993 1.328 1.518 3.075 2.278 5.24 2.278 1.483 0 3.105-.48 4.868-1.441l1.669 3.299zM102.573 22.928c0-2.725-.514-4.847-1.537-6.365-1.024-1.518-2.45-2.277-4.279-2.277-1.737 0-3.126.783-4.165 2.346-1.038 1.565-1.557 3.664-1.557 6.296 0 2.787.512 4.97 1.536 6.55 1.023 1.581 2.449 2.372 4.278 2.372 1.8 0 3.202-.79 4.211-2.371 1.007-1.58 1.513-3.764 1.513-6.55m6.372-.048c0 3.595-1.134 6.552-3.397 8.875-2.263 2.323-5.162 3.485-8.699 3.485-3.567 0-6.488-1.145-8.768-3.438-2.28-2.292-3.42-5.25-3.42-8.875 0-3.531 1.147-6.419 3.443-8.666 2.294-2.245 5.241-3.368 8.838-3.368 3.444 0 6.305 1.147 8.583 3.439 2.279 2.292 3.42 5.142 3.42 8.548M133.646 11.962l-10.002 22.722h-4.233l-9.305-22.536 6.094-1.115 6.048 16.262 6.42-16.262zM150.996 20.558c0-.278-.015-.65-.047-1.115-.25-3.5-1.754-5.25-4.507-5.25-3.258 0-4.98 2.122-5.168 6.365h9.722zm5.49 2.323c0 .063-.201.186-.603.372-.405.186-.606.326-.606.419h-14.003c.03 2.354.705 4.212 2.023 5.574 1.32 1.364 3.033 2.045 5.142 2.045 1.984 0 4-.618 6.046-1.858l1.722 3.206c-3.07 1.735-6.095 2.602-9.072 2.602-3.411 0-6.233-1.052-8.466-3.16-2.575-2.416-3.861-5.543-3.861-9.385 0-3.531 1.147-6.413 3.443-8.643 2.17-2.105 4.93-3.16 8.28-3.16 4.217 0 7.1 1.704 8.652 5.111.838 1.83 1.271 4.121 1.303 6.877zM176.395 13.032l-2.281 4.413c-1.364-.65-2.341-.975-2.93-.975-1.737 0-2.945.928-3.628 2.788-.403 1.115-.603 2.957-.603 5.529v9.897h-6.143V11.452h6.143v4.088l.881-1.487c1.24-2.105 2.653-3.16 4.235-3.16 1.332 0 2.775.714 4.326 2.139"/>
        <path d="M198.77 12.01l-11.304 25.6c-1.457 3.315-2.838 5.514-4.14 6.598-1.674 1.394-4.093 2.091-7.257 2.091h-1.442v-4.135h1.21c1.426 0 2.543-.194 3.35-.58.805-.388 1.558-1.116 2.255-2.185.699-1.068 1.682-3.152 2.954-6.25l-9.024-20.954 6.047-1.161 5.955 16.355 6.558-16.355 4.839.976zM117.02 38.443l-8.395-8.384a11.4 11.4 0 0 1-3.523 3.673l8.318 8.309c.822.82 2.165.82 2.986-.003l.615-.611c.82-.82.82-2.163 0-2.984"/>
    </g>
</svg>
