<svg height="579pt" viewBox="0 -34 579.99773 579" width="579pt" xmlns="http://www.w3.org/2000/svg"><path d="m426.445312 242.390625c15.425782-23.855469 40.578126-39.6875 68.738282-43.308594 28.179687-3.621093 56.511718 5.355469 77.464844 24.523438-12.234376-28.101563-45.046876-93.261719-118.769532-185.402344-25.726562-32.160156-59.765625-44.808594-91.078125-33.820313-29.089843 10.191407-48.628906 39.558594-48.628906 73.070313 0 5.035156 1.558594 9.941406 4.492187 14.046875zm0 0"/><path d="m24.171875 246.617188h375.613281l-85.644531-119.871094c-.441406 46.9375-34.570313 86.757812-80.886719 94.40625-46.296875 7.65625-91.425781-19.085938-106.957031-63.375-62.585937 35.710937-110.988281 65.886718-114.933594 68.339844-8.933593 5.59375-13.199219 16.347656-10.554687 26.539062 7.148437-3.957031 15.191406-6.050781 23.363281-6.039062zm0 0"/><path d="m217.5 198.289062c40.027344-.050781 72.457031-32.476562 72.5-72.503906 0-34.410156-42.761719-77.628906-55.890625-90.054687-9.308594-8.816407-23.925781-8.816407-33.234375 0-13.105469 12.425781-55.875 55.644531-55.875 90.054687.050781 40.027344 32.476562 72.453125 72.5 72.503906zm0 0"/><path d="m507.503906 222.453125c-30.710937.035156-58.085937 19.386719-68.355468 48.328125h-414.976563c-13.351563 0-24.171875 10.824219-24.171875 24.164062v193.339844c0 13.347656 10.820312 24.171875 24.171875 24.171875h531.667969c13.339844 0 24.15625-10.824219 24.15625-24.171875v-193.339844c-.046875-40.015624-32.476563-72.449218-72.492188-72.492187zm-362.503906 145c-13.34375 0-24.15625-10.824219-24.15625-24.171875 0-13.332031 10.8125-24.160156 24.15625-24.160156 13.351562 0 24.171875 10.828125 24.171875 24.160156 0 13.347656-10.820313 24.171875-24.171875 24.171875zm48.328125 96.671875c-13.34375 0-24.15625-10.824219-24.15625-24.175781 0-13.34375 10.8125-24.164063 24.15625-24.164063 13.355469 0 24.171875 10.820313 24.171875 24.164063 0 13.351562-10.816406 24.175781-24.171875 24.175781zm96.671875-48.339844c-13.339844 0-24.160156-10.820312-24.160156-24.167968 0-13.339844 10.820312-24.164063 24.160156-24.164063 13.351562 0 24.171875 10.824219 24.171875 24.164063 0 13.347656-10.820313 24.167968-24.171875 24.167968zm96.664062 48.339844c-13.335937 0-24.164062-10.824219-24.164062-24.175781 0-13.34375 10.828125-24.164063 24.164062-24.164063 13.359376 0 24.175782 10.820313 24.175782 24.164063 0 13.351562-10.816406 24.175781-24.175782 24.175781zm48.339844-96.671875c-13.34375 0-24.164062-10.824219-24.164062-24.171875 0-13.332031 10.820312-24.160156 24.164062-24.160156 13.347656 0 24.164063 10.828125 24.164063 24.160156 0 13.347656-10.816407 24.171875-24.164063 24.171875zm0 0"/></svg>