<svg height="512" viewBox="0 0 57 43" width="512" xmlns="http://www.w3.org/2000/svg"><g id="Page-1" fill="none" fill-rule="evenodd"><g id="030---Croissant" fill="rgb(0,0,0)" fill-rule="nonzero"><path id="Shape" d="m45.07 6.811c-.4649488-.63872935-1.0536233-1.17741249-1.731-1.584-3-1.9-8.117-3.73-15.756-2.131.083.117.168.228.249.349 4.262 6.394 6.4 14.8 5.3 19.86.6477468.2001831 1.322027.3013251 2 .3 1.151-.012 2.059-.428 2.757-2.421.01499-.0427515.0326927-.084503.053-.125.5046294-1.6990766.8596494-3.4390429 1.061-5.2.4836033-3.8035154 2.7319035-7.15651034 6.067-9.048z"/><path id="Shape" d="m18.694 38.884c.8336512-2.7320706 2.9960134-4.854898 5.743-5.638.8215072-.2100576 1.6891344-.146153 2.471.182-.0479006-.3825063-.1370872-.7586998-.266-1.122-.2963299-.7500186-.7930858-1.4041728-1.436-1.891-.3295215-.2640009-.6766599-.505227-1.039-.722-.034-.021-.065-.043-.1-.067-.4755708-.2808839-.9655805-.5365702-1.468-.766-1.600006-.7336311-3.2422404-1.3714245-4.918-1.91-3.878-1.294-7.5-.653-9.672 1.712-1.93667661 2.1839916-2.36798663 5.3191774-1.093 7.945l.01.02v.009c2.074 4.753 7.96 5.364 10.4 5.404.523563.0196513 1.0478328.0079637 1.57-.035h.028c-.5041376-.9639995-.5873762-2.0935118-.23-3.121z"/><path id="Shape" d="m21.914.879c-2.0318541-.67919282-4.2419272-.59205605-6.214.245-2.0306814.86984812-3.9273372 2.02407078-5.633 3.428-.213.165-.423.333-.633.5-1.61933983 1.31877806-3.14936884 2.74357582-4.58 4.265l-.251.264c-1.1 1.153-1.828 1.993-1.845 3 2.14995485-.9007111 4.45411664-1.3761461 6.785-1.4 1.9175509.0005576 3.8187148.3530644 5.609 1.04 7.8 2.963 12.295 11.3 13.465 13.728.892647-.1524586 1.6544085-.7316213 2.04-1.551 2.037-3.806-.1-13.264-4.489-19.844-.9998398-1.63883542-2.4873014-2.92384282-4.254-3.675zm-.14 3.159c-.1976091.51539928-.7754484.7732114-1.291.576-1.112224-.31744426-2.3009746-.23028102-3.355.246-1.6602549.73387903-3.2109636 1.69398576-4.608 2.853-.193.148-.383.3-.572.452-.3173333.256-.6326667.51966667-.946.791-.4209866.32276893-1.02075352.26064047-1.3666415-.14156721-.34588799-.40220769-.3175193-1.00451616.0646415-1.37243279.3333333-.28533333.6666667-.563 1-.833.2-.162.4-.321.6-.477 1.5508885-1.28170656 3.2744617-2.33874168 5.12-3.14 1.512546-.65740871 3.2120003-.74479704 4.784-.246.5135755.20000399.7685045.77784306.57 1.292z"/><path id="Shape" d="m52.228 12.886c-1.0395137.9570172-1.8291305 2.1538016-2.3 3.486-.5838291 1.243996-.9798091 2.5677489-1.175 3.928 1.618.845 4.471 1.895 7.265.776.5450251-.1419807.9366339-.6187744.97-1.181.16-1.946-2.404-5.326-4.76-7.009z"/><path id="Shape" d="m26.459 35.416c-.4473874-.2784037-.9879197-.3652492-1.5-.241-2.1167651.6077166-3.7723843 2.2610694-4.383 4.377-.1914592.5531361-.1288957 1.1625881.1709508 1.665289s.8063722.8473424 1.3840492.941711c1.5646958.1959194 3.150357.147 4.7-.145 2.971-.5 4.16-1.369 4.282-2.021.076-.383-.048-1.847-4.654-4.577z"/><path id="Shape" d="m18.316 25.051c1.7482164.5631274 3.461549 1.2292936 5.131 1.995.6033275.2766477 1.1908915.5864542 1.76.928.0402863.0241149.0787254.0511894.115.081.214.134.406.261.586.387.5065126-.2742189.8884466-.7323964 1.067-1.28-.711-1.523-5.049-10.234-12.541-13.074-3.8318929-1.3871098-8.06556318-1.1376025-11.708.69-.93499976 1.9958192-1.54276771 4.1290847-1.8 6.318-.00490935.0435179-.01292988.0866283-.024.129-.58031664 4.4058931.62356404 8.8610436 3.344 12.375-.09029718-2.3173504.73356165-4.5773956 2.294-6.293 2.726-2.963 7.131-3.807 11.776-2.256z"/><path id="Shape" d="m51.6 10.857.015-.011.035-.026c.1140466-.0551291.1902089-.1667068.2-.293.0022428-.0902968-.0443959-.1747816-.122-.221-1.5905532-.98384638-3.3484427-1.66686746-5.186-2.015-3.0424049 1.5285909-5.1229713 4.4728099-5.548 7.851-.2047197 1.6247235-.5147049 3.2344421-.928 4.819 1.6148511.4748141 3.3308818.4845189 4.951.028.5885291-.1443106 1.1673494-.3256721 1.733-.543.1487802-1.6725327.5976129-3.3045902 1.325-4.818.6607591-1.9127043 1.8907892-3.5775196 3.525-4.771z"/><path id="Shape" d="m50.5 25c-1.9329966 0-3.5 1.5670034-3.5 3.5s1.5670034 3.5 3.5 3.5 3.5-1.5670034 3.5-3.5-1.5670034-3.5-3.5-3.5z"/><circle id="Oval" cx="44" cy="27" r="1"/><circle id="Oval" cx="40" cy="28" r="1"/></g></g></svg>