<?xml version="1.0" encoding="iso-8859-1"?>
<!-- Generator: Adobe Illustrator 19.0.0, SVG Export Plug-In . SVG Version: 6.00 Build 0)  -->
<svg version="1.1" id="Capa_1" xmlns="http://www.w3.org/2000/svg" xmlns:xlink="http://www.w3.org/1999/xlink" x="0px" y="0px"
	 viewBox="0 0 469.333 469.333" style="enable-background:new 0 0 469.333 469.333;" xml:space="preserve">
<g>
	<g>
		<path d="M426.667,0h-384C19.135,0,0,19.135,0,42.667v384c0,23.531,19.135,42.667,42.667,42.667h384
			c23.531,0,42.667-19.135,42.667-42.667v-384C469.333,19.135,450.198,0,426.667,0z M234.667,181.333
			c0,23.044-14.704,42.697-35.216,50.128c-4.336,1.571-6.866,6.119-6.671,10.726l5.543,130.698c0.125,2.896-0.948,5.729-2.958,7.833
			c-2.01,2.094-4.792,3.281-7.698,3.281H175c-2.906,0-5.688-1.188-7.698-3.281c-2.01-2.104-3.083-4.938-2.958-7.833l5.543-130.698
			c0.195-4.607-2.335-9.155-6.671-10.726C142.704,224.03,128,204.377,128,181.333V96c0-5.896,4.771-10.667,10.667-10.667
			S149.333,90.104,149.333,96v85.333c0,13.888,8.944,25.617,21.333,30.035V96c0-5.896,4.771-10.667,10.667-10.667
			C187.229,85.333,192,90.104,192,96v115.369c12.389-4.418,21.333-16.147,21.333-30.035V96c0-5.896,4.771-10.667,10.667-10.667
			c5.896,0,10.667,4.771,10.667,10.667V181.333z M341.333,277.333c0,11.782-9.551,21.333-21.333,21.333h-25.854
			c-6.19,0-11.081,5.252-10.64,11.427l4.463,62.48c0.219,2.958-0.813,5.865-2.833,8.031c-2.01,2.167-4.844,3.396-7.802,3.396
			h-10.667c-5.896,0-10.667-4.771-10.667-10.667V96c0-3.135,1.375-6.115,3.771-8.135c2.385-2.031,5.552-2.865,8.646-2.385
			c42.25,7.042,72.917,43.24,72.917,86.073V277.333z"/>
	</g>
</g>
<g>
</g>
<g>
</g>
<g>
</g>
<g>
</g>
<g>
</g>
<g>
</g>
<g>
</g>
<g>
</g>
<g>
</g>
<g>
</g>
<g>
</g>
<g>
</g>
<g>
</g>
<g>
</g>
<g>
</g>
</svg>
